<svg xmlns="http://www.w3.org/2000/svg" width="500" height="500" viewBox="0 0 500 500" version="1.1"><path d="M 176.831 126.956 C 153.412 131.245, 141.210 142.941, 134.791 167.253 C 132.678 175.253, 132.602 177.490, 132.254 241.936 C 131.940 299.821, 132.100 309.387, 133.493 316.260 C 137.765 337.344, 149.793 351.193, 169 357.142 C 175.104 359.032, 178.640 359.451, 188 359.390 C 218.125 359.196, 235.418 347.593, 242.744 322.661 C 243.889 318.766, 244.376 310.327, 244.731 288.250 L 245.200 259 222.100 259 L 199 259 198.976 281.250 C 198.963 293.488, 198.543 305.265, 198.043 307.423 C 196.595 313.664, 193.965 316.451, 189.188 316.806 C 184.092 317.184, 181.530 315.872, 179.260 311.720 C 177.645 308.766, 177.475 303.532, 177.193 248.285 C 177.009 212.159, 177.283 185.209, 177.877 180.919 C 179.134 171.847, 181.455 169, 187.593 169 C 193.313 169, 194.776 169.696, 196.781 173.371 C 198.208 175.986, 198.544 180.075, 198.829 198.250 L 199.169 220 221.585 220 L 244 220 243.985 195.250 C 243.969 167.660, 243.139 161.793, 237.850 151.870 C 232.089 141.062, 219.892 132.031, 206.257 128.478 C 199.174 126.633, 183.127 125.803, 176.831 126.956 M 303.500 126.931 C 289.934 129.143, 281.805 133.148, 274.383 141.275 C 265.568 150.928, 260.954 163.356, 258.945 182.853 C 258.230 189.792, 257.979 214.397, 258.223 253.500 C 258.637 319.637, 258.511 318.218, 265.197 332 C 268.986 339.811, 278.407 349.652, 285.571 353.283 C 294.754 357.936, 301.563 359.391, 314 359.357 C 326.555 359.322, 335.971 357.530, 344.781 353.499 C 352.322 350.048, 361.418 341.005, 365.093 333.306 C 370.191 322.624, 370.963 316.451, 370.983 286.250 L 371 259 348 259 L 325 259 325 282.980 C 325 313.600, 323.951 317, 314.500 317 C 309.362 317, 307.408 315.637, 305.553 310.761 C 304.107 306.960, 303.963 299.407, 304.216 240.823 C 304.497 175.894, 304.524 175.113, 306.599 172.323 C 310.137 167.566, 319.508 167.796, 322.737 172.718 C 324.242 175.011, 324.573 178.631, 325 197.452 L 325.500 219.500 348 219.500 L 370.500 219.500 370.770 198.060 C 371.084 173.213, 369.796 163.091, 365.111 153.574 C 357.068 137.235, 340.286 127.571, 318.205 126.560 C 312.867 126.315, 306.250 126.482, 303.500 126.931" stroke="none" fill="#050505" fill-rule="evenodd"/><path d="M 0 250.002 L 0 500.004 250.250 499.752 L 500.500 499.500 500.752 249.750 L 501.004 0 250.502 0 L 0 0 0 250.002 M 0.492 250.500 C 0.492 388, 0.608 444.101, 0.750 375.170 C 0.892 306.238, 0.892 193.738, 0.750 125.170 C 0.608 56.601, 0.492 113, 0.492 250.500 M 176.831 126.956 C 153.412 131.245, 141.210 142.941, 134.791 167.253 C 132.678 175.253, 132.602 177.490, 132.254 241.936 C 131.940 299.821, 132.100 309.387, 133.493 316.260 C 137.765 337.344, 149.793 351.193, 169 357.142 C 175.104 359.032, 178.640 359.451, 188 359.390 C 218.125 359.196, 235.418 347.593, 242.744 322.661 C 243.889 318.766, 244.376 310.327, 244.731 288.250 L 245.200 259 222.100 259 L 199 259 198.976 281.250 C 198.963 293.488, 198.543 305.265, 198.043 307.423 C 196.595 313.664, 193.965 316.451, 189.188 316.806 C 184.092 317.184, 181.530 315.872, 179.260 311.720 C 177.645 308.766, 177.475 303.532, 177.193 248.285 C 177.009 212.159, 177.283 185.209, 177.877 180.919 C 179.134 171.847, 181.455 169, 187.593 169 C 193.313 169, 194.776 169.696, 196.781 173.371 C 198.208 175.986, 198.544 180.075, 198.829 198.250 L 199.169 220 221.585 220 L 244 220 243.985 195.250 C 243.969 167.660, 243.139 161.793, 237.850 151.870 C 232.089 141.062, 219.892 132.031, 206.257 128.478 C 199.174 126.633, 183.127 125.803, 176.831 126.956 M 303.500 126.931 C 289.934 129.143, 281.805 133.148, 274.383 141.275 C 265.568 150.928, 260.954 163.356, 258.945 182.853 C 258.230 189.792, 257.979 214.397, 258.223 253.500 C 258.637 319.637, 258.511 318.218, 265.197 332 C 268.986 339.811, 278.407 349.652, 285.571 353.283 C 294.754 357.936, 301.563 359.391, 314 359.357 C 326.555 359.322, 335.971 357.530, 344.781 353.499 C 352.322 350.048, 361.418 341.005, 365.093 333.306 C 370.191 322.624, 370.963 316.451, 370.983 286.250 L 371 259 348 259 L 325 259 325 282.980 C 325 313.600, 323.951 317, 314.500 317 C 309.362 317, 307.408 315.637, 305.553 310.761 C 304.107 306.960, 303.963 299.407, 304.216 240.823 C 304.497 175.894, 304.524 175.113, 306.599 172.323 C 310.137 167.566, 319.508 167.796, 322.737 172.718 C 324.242 175.011, 324.573 178.631, 325 197.452 L 325.500 219.500 348 219.500 L 370.500 219.500 370.770 198.060 C 371.084 173.213, 369.796 163.091, 365.111 153.574 C 357.068 137.235, 340.286 127.571, 318.205 126.560 C 312.867 126.315, 306.250 126.482, 303.500 126.931" stroke="none" fill="#fbfbfb" fill-rule="evenodd"/></svg>